<?xml version="1.0" encoding="UTF-8"?>
<svg version="1.1" xmlns="http://www.w3.org/2000/svg" width="128" height="94">
<path d="M0 0 C23.41908812 -0.04010881 23.41908812 -0.04010881 33.36523438 -0.04882812 C40.16464005 -0.05481697 46.96403232 -0.06191838 53.76342773 -0.07543945 C59.24229136 -0.08626696 64.72114062 -0.09227654 70.20001411 -0.09487724 C72.29529611 -0.09673174 74.39057728 -0.10035282 76.4858532 -0.10573006 C79.40977584 -0.11293868 82.33363833 -0.11399102 85.25756836 -0.11352539 C86.57062958 -0.1189183 86.57062958 -0.1189183 87.91021729 -0.12442017 C93.88594784 -0.11405216 93.88594784 -0.11405216 95 1 C95.08775605 3.14558827 95.10695219 5.29404421 95.09765625 7.44140625 C95.09282227 9.39916992 95.09282227 9.39916992 95.08789062 11.39648438 C95.07953401 12.7851569 95.07106905 14.17382877 95.0625 15.5625 C95.05748666 16.95507656 95.05292347 18.34765481 95.04882812 19.74023438 C95.03699434 23.1601987 95.0205088 26.58007844 95 30 C92.6315918 30.61523438 92.6315918 30.61523438 90 31 C87.89453125 29.15625 87.89453125 29.15625 85.8125 26.5 C81.93805956 21.8363217 78.07138682 18.7469855 72.87109375 15.66796875 C72.25363281 15.11753906 71.63617188 14.56710938 71 14 C71 12.35 71 10.7 71 9 C55.16 9 39.32 9 23 9 C23.01160156 12.74214844 23.02320312 16.48429687 23.03515625 20.33984375 C23.04294547 23.94718338 23.049023 27.55452209 23.05493164 31.16186523 C23.05997363 33.67716895 23.06680703 36.19246972 23.07543945 38.70776367 C23.08751094 42.31429775 23.09322949 45.92079323 23.09765625 49.52734375 C23.10281754 50.65961899 23.10797882 51.79189423 23.11329651 52.95848083 C23.11340981 54.51998619 23.11340981 54.51998619 23.11352539 56.11303711 C23.115746 57.03459091 23.11796661 57.95614471 23.12025452 58.90562439 C23 61 23 61 22 62 C14.74 62 7.48 62 0 62 C0 41.54 0 21.08 0 0 Z " fill="#FBFDF0" transform="translate(17,16)"/>
<path d="M0 0 C38.17099299 -0.94952719 38.17099299 -0.94952719 53 13 C61.85538295 23.11334389 64.56387832 33.88594147 66 47 C62.37506666 47.05787784 58.75025143 47.0935542 55.125 47.125 C54.09246094 47.14175781 53.05992188 47.15851563 51.99609375 47.17578125 C50.51689453 47.18544922 50.51689453 47.18544922 49.0078125 47.1953125 C47.64100342 47.21102295 47.64100342 47.21102295 46.24658203 47.22705078 C44 47 44 47 42 45 C41.65687725 42.48963184 41.40093866 40.02104673 41.1875 37.5 C39.99626567 26.54308768 36.67550109 19.74683367 28.0859375 12.59375 C26.4364562 11.33347215 24.7271987 10.1514658 23 9 C22.67 21.54 22.34 34.08 22 47 C14.74 47 7.48 47 0 47 C0 31.49 0 15.98 0 0 Z " fill="#FDFEF1" transform="translate(46,31)"/>
</svg>
